# xmcd
#
# Track frame offsets:
#	150
#	10726
#	20205
#	30250
#	40366
#	50570
#	61489
#	75282
#	87966
#
# Disc length: 1324 seconds
#
# Revision: 1
# Processed by: cddbd v1.5.2PL0 Copyright (c) Steve Scherf et al.
# Submitted via: audiograbber 1.83.01
#
DISCID=64052a09
DTITLE=Mel Tillis - Night train to Memphis
DYEAR=1974
DGENRE=Country
TTITLE0=Night train to Memphis
TTITLE1=Okeechobee ocean
TTITLE2=If only I could start over
TTITLE3=World, what have I done
TTITLE4=Tormented heart
TTITLE5=Guide me home my Georgia moon
TTITLE6=Twelve long stem roses
TTITLE7=Lonely girl
TTITLE8=Tom Dooley
EXTD=
EXTT0=
EXTT1=
EXTT2=
EXTT3=
EXTT4=
EXTT5=
EXTT6=
EXTT7=
EXTT8=
PLAYORDER=
